:SAMPLES-PER-SECOND 30
:FULLY-SPECIFIED
:DEGREES
1308
root  51.3293 38.736 6.96504 171.061 74.7657 165.753
RightUpLeg  -21.9888 -6.79521 -5.15118
RightLeg  18.4513 8.30824 2.76995
RightFoot  0.0374335 0.0974657 -0.975878
RightToes  5.82063e-011 0 -3.6325e-017
Spine  18.7128 -2.17341 4.29751
Spine1  7.68459 -1.26821 -2.49942
HEad  -13.0687 -1.84322 -3.50472
LeftShoulder1  1.23965 -1.84525 -16.4445
LeftArm  -12.5183 -51.7911 -44.5139
LeftForeArm  -7.04221 -47.7706 -12.8502
LeftHand  0.0181724 6.85445 3.99376
RightShoulder  0.575267 -0.114238 9.72741
RightArm  -28.9122 49.0336 28.8986
RightForeArm  -11.3941 50.6475 14.5626
RightHand  -1.47285 11.9263 -10.258
LeftUpLeg  -18.2225 3.06321 2.5406
LeftLeg  2.80014 -14.4594 0.290045
LeftFoot  8.57224 1.68425 -9.91495
LeftToes  -1.20963e-009 8.6283e-011 2.04439e-011
1309
root  51.3587 38.9123 7.47893 171.236 71.8628 165.55
RightUpLeg  -21.1035 -9.23579 -5.19267
RightLeg  16.6762 7.91052 2.54693
RightFoot  0.454129 0.122606 -1.15844
RightToes  5.82063e-011 0 -3.6325e-017
Spine  18.0014 -2.29053 4.07259
Spine1  7.95332 -1.41489 -2.53195
HEad  -13.4084 -1.61683 -3.52635
LeftShoulder1  1.25515 -1.6342 -17.8089
LeftArm  -9.90291 -47.9887 -46.3859
LeftForeArm  -5.53598 -51.211 -14.4381
LeftHand  -0.00597263 5.97044 4.31571
RightShoulder  0.552312 -0.574403 11.7983
RightArm  -27.3444 45.6177 28.8703
RightForeArm  -8.05125 56.5388 17.9673
RightHand  -1.43635 10.1574 -11.0507
LeftUpLeg  -16.9811 3.56833 2.11708
LeftLeg  2.1308 -6.87746 -0.0364148
LeftFoot  7.00469 1.78067 -11.2284
LeftToes  -1.20963e-009 8.6283e-011 2.04439e-011
1310
root  51.3564 39.077 7.96737 172.009 68.0983 165.985
RightUpLeg  -20.0587 -11.3338 -5.65052
RightLeg  14.8453 6.23701 2.3035
RightFoot  0.775641 0.111121 -0.994291
RightToes  5.82063e-011 0 -3.6325e-017
Spine  17.1804 -2.49481 3.68942
Spine1  8.40651 -1.88406 -1.80615
HEad  -13.7038 -1.50388 -3.90857
LeftShoulder1  1.3127 -1.56475 -19.3779
LeftArm  -7.54861 -43.9214 -48.1133
LeftForeArm  -3.04195 -54.9683 -16.4766
LeftHand  -0.0155336 5.67366 4.3551
RightShoulder  0.504513 -0.936036 12.7668
RightArm  -26.4535 41.1708 29.0091
RightForeArm  -4.7799 62.4269 22.8981
RightHand  -1.27761 9.39972 -10.3751
LeftUpLeg  -16.0757 3.90861 1.49291
LeftLeg  3.36175 -0.668428 -0.513337
LeftFoot  5.71813 1.21458 -8.32421
LeftToes  -1.20963e-009 8.6283e-011 2.04439e-011
1311
root  51.3494 39.2137 8.4278 172.921 64.1627 166.428
RightUpLeg  -19.2516 -12.3959 -6.3519
RightLeg  13.3999 3.37686 2.01864
RightFoot  1.1105 0.137537 -1.19122
RightToes  5.82063e-011 0 -3.6325e-017
Spine  16.5941 -2.63873 3.44487
Spine1  8.22028 -2.20978 -1.32553
HEad  -13.7997 -1.71385 -3.67038
LeftShoulder1  1.38012 -1.68437 -20.1589
LeftArm  -5.8865 -39.0075 -50.1924
LeftForeArm  0.474409 -59.0054 -19.0932
LeftHand  -0.0141972 5.77882 3.84553
RightShoulder  0.450653 -1.41829 14.9672
RightArm  -25.5307 36.6622 28.0936
RightForeArm  -0.275772 67.8178 29.9319
RightHand  -1.19594 8.78992 -10.1242
LeftUpLeg  -15.2493 4.19756 0.786021
LeftLeg  5.20883 3.81172 -0.404449
LeftFoot  4.27964 0.877126 -6.57941
LeftToes  -1.20963e-009 8.6283e-011 2.04439e-011
1312
root  51.3712 39.3163 8.85896 173.373 60.3452 166.723
RightUpLeg  -18.2004 -12.8929 -7.21332
RightLeg  12.2939 0.13711 1.77537
RightFoot  1.09121 0.11181 -0.957506
RightToes  5.82063e-011 0 -3.6325e-017
Spine  16.2627 -2.56773 2.96398
Spine1  7.84755 -2.37175 -0.64033
HEad  -13.5818 -1.6636 -3.85977
LeftShoulder1  1.33513 -1.27343 -21.5624
LeftArm  -3.06122 -35.5382 -51.0713
LeftForeArm  2.37681 -61.654 -21.3057
LeftHand  -0.00974234 5.8921 4.09213
RightShoulder  0.378832 -1.88026 16.9534
RightArm  -24.4179 31.7351 27.5428
RightForeArm  10.5495 72.7648 40.9557
RightHand  -1.1036 8.55013 -9.55002
LeftUpLeg  -13.9608 5.3995 0.185345
LeftLeg  7.38048 4.80141 -0.382421
LeftFoot  2.61838 0.656318 -5.49411
LeftToes  -1.20963e-009 8.6283e-011 2.04439e-011
1313
root  51.3865 39.3744 9.22251 174.258 56.2534 167.576
RightUpLeg  -17.1966 -13.5041 -7.98714
RightLeg  11.6321 -3.43573 1.75872
RightFoot  1.04939 0.138515 -1.20953
RightToes  5.82063e-011 0 -3.6325e-017
Spine  15.2047 -2.58934 3.62236
Spine1  8.59372 -2.29435 -0.739729
HEad  -13.3898 -1.9137 -4.83134
LeftShoulder1  1.30338 -0.972951 -22.8405
LeftArm  -0.262903 -32.986 -52.0213
LeftForeArm  4.62584 -63.5527 -23.1375
LeftHand  -0.00645601 5.93381 4.4323
RightShoulder  0.263638 -2.41771 18.1668
RightArm  -23.6675 25.9123 27.7972
RightForeArm  30.0883 76.9724 60.9046
RightHand  -1.12403 7.60951 -10.3462
LeftUpLeg  -12.5434 7.34398 -0.0914718
LeftLeg  9.41733 2.88756 -0.511773
LeftFoot  1.01199 0.586964 -5.49303
LeftToes  -1.20963e-009 8.6283e-011 2.04439e-011
1314
root  51.4026 39.41 9.55586 175.155 52.1108 168.377
RightUpLeg  -16.4618 -13.9521 -8.61752
RightLeg  11.4173 -6.99961 1.55039
RightFoot  0.869265 0.143766 -1.28773
RightToes  5.82063e-011 0 -3.6325e-017
Spine  14.4835 -2.52191 3.53269
Spine1  8.42508 -2.44443 0.0897388
HEad  -12.7519 -0.629708 -6.18971
LeftShoulder1  1.21268 -0.431746 -24.5676
LeftArm  1.89018 -29.4831 -51.7964
LeftForeArm  8.44868 -66.0449 -25.892
LeftHand  -0.0200548 5.57711 3.83634
RightShoulder  0.183427 -2.77369 19.521
RightArm  -22.2944 20.2684 28.3727
RightForeArm  56.7906 78.5997 86.376
RightHand  -0.89849 8.08381 -8.09351
LeftUpLeg  -11.011 9.1512 -0.0187829
LeftLeg  11.0207 1.29004 -0.430888
LeftFoot  -0.0250121 0.613004 -6.17571
LeftToes  -1.20963e-009 8.6283e-011 2.04439e-011
1315
root  51.4252 39.4572 9.87275 175.825 48.2377 169.217
RightUpLeg  -15.3861 -14.1374 -9.06915
RightLeg  10.9611 -10.5181 1.3341
RightFoot  0.948702 0.157196 -1.39922
RightToes  5.82063e-011 0 -3.6325e-017
Spine  13.7693 -2.32198 3.77359
Spine1  8.66196 -2.24002 0.342852
HEad  -12.2685 0.420087 -7.70836
LeftShoulder1  1.17255 -0.270466 -24.8519
LeftArm  2.95317 -25.1132 -52.4872
LeftForeArm  14.0938 -68.7653 -29.6632
LeftHand  -0.0389488 4.93802 4.21802
RightShoulder  0.0972533 -3.12275 20.5427
RightArm  -20.7535 14.5261 29.6753
RightForeArm  82.0828 77.891 110.743
RightHand  -0.771442 8.63845 -6.73939
LeftUpLeg  -9.27204 12.1512 0.554111
LeftLeg  12.5723 0.611082 -0.270328
LeftFoot  -0.540667 0.559753 -5.88559
LeftToes  -1.20963e-009 8.6283e-011 2.04439e-011
1316
root  51.3998 39.4919 10.1597 176.452 44.1672 169.872
RightUpLeg  -14.6003 -14.5725 -9.60029
RightLeg  10.7575 -13.9781 1.09094
RightFoot  1.07158 0.162889 -1.4297
RightToes  5.82063e-011 0 -3.6325e-017
Spine  13.1194 -2.27016 3.7503
Spine1  8.65592 -2.236 0.624519
HEad  -11.7584 1.85028 -9.79551
LeftShoulder1  1.10694 -0.0192202 -25.22
LeftArm  3.90343 -20.9127 -52.2021
LeftForeArm  19.8565 -71.4506 -34.654
LeftHand  -0.0485863 4.72092 4.84762
RightShoulder  0.0351464 -3.33649 21.2958
RightArm  -18.7532 9.31942 31.686
RightForeArm  97.9584 76.078 126.168
RightHand  -0.861475 8.36423 -7.63893
LeftUpLeg  -7.7566 16.4981 1.28032
LeftLeg  13.7311 0.84289 -0.00461307
LeftFoot  -0.542289 0.521195 -5.47933
LeftToes  -1.20963e-009 8.6283e-011 2.04439e-011
1317
root  51.3361 39.5139 10.438 177.178 39.3815 170.553
RightUpLeg  -13.7068 -15.3158 -10.2879
RightLeg  10.5381 -18.037 0.978085
RightFoot  1.1057 0.183443 -1.61224
RightToes  5.82063e-011 0 -3.6325e-017
Spine  12.3479 -2.417 3.87661
Spine1  8.74891 -2.34977 0.548401
HEad  -11.3551 3.54421 -11.4046
LeftShoulder1  1.08468 0.121405 -25.8885
LeftArm  5.18484 -17.9552 -52.0218
LeftForeArm  24.0182 -72.8214 -37.9796
LeftHand  -0.086246 3.76802 5.05906
RightShoulder  -0.22726 -4.2378 23.8493
RightArm  -16.2682 6.42071 31.7869
RightForeArm  104.517 74.7004 132.822
RightHand  -1.0242 7.30339 -9.67362
LeftUpLeg  -6.68564 21.0599 2.17415
LeftLeg  14.5116 1.85146 0.445419
LeftFoot  -0.488047 0.475256 -4.96907
LeftToes  -1.20963e-009 8.6283e-011 2.04439e-011
1318
root  51.2675 39.5372 10.6705 177.463 34.7748 171.108
RightUpLeg  -12.5382 -16.0676 -11.1022
RightLeg  10.5758 -21.494 0.848228
RightFoot  1.13154 0.203929 -1.79484
RightToes  5.82063e-011 0 -3.6325e-017
Spine  11.8042 -2.41301 3.3702
Spine1  8.9317 -2.57528 1.29824
HEad  -11.2006 5.85177 -13.8726
LeftShoulder1  1.03266 0.292933 -25.9843
LeftArm  5.5818 -14.6938 -52.4278
LeftForeArm  28.4964 -74.1076 -41.6782
LeftHand  -0.0610004 4.47362 5.14186
RightShoulder  -0.276918 -4.37721 24.4222
RightArm  -14.0208 2.77036 33.5869
RightForeArm  111.04 73.4237 137.859
RightHand  -0.920155 6.67924 -9.16566
LeftUpLeg  -5.07843 26.668 3.55956
LeftLeg  14.46 2.48653 0.39138
LeftFoot  -0.555331 0.377371 -3.96125
LeftToes  -1.20963e-009 8.6283e-011 2.04439e-011
1319
root  51.1591 39.5666 10.8941 177.905 29.8956 171.903
RightUpLeg  -11.2064 -16.6151 -11.7265
RightLeg  10.3198 -25.7617 0.715285
RightFoot  1.3907 0.206031 -1.75482
RightToes  5.82063e-011 0 -3.6325e-017
Spine  11.3183 -2.47155 3.34814
Spine1  8.94626 -2.69762 1.51206
HEad  -10.8987 8.08875 -16.078
LeftShoulder1  0.979253 0.503576 -26.4873
LeftArm  6.68552 -12.4644 -51.7401
LeftForeArm  31.4359 -74.9034 -44.6002
LeftHand  -0.0487249 4.52894 3.80281
RightShoulder  -0.370106 -4.65391 25.1947
RightArm  -11.4759 -0.158792 35.5723
RightForeArm  114.819 72.4783 140.877
RightHand  -0.87532 6.51627 -8.84615
LeftUpLeg  -3.52633 29.6059 5.20659
LeftLeg  13.5333 5.79546 0.299917
LeftFoot  -0.149758 0.314599 -3.21273
LeftToes  -1.20963e-009 8.6283e-011 2.04439e-011
